<?xml version="1.0" encoding="UTF-8"?>
<svg xmlns="http://www.w3.org/2000/svg" xmlns:xlink="http://www.w3.org/1999/xlink" width="32pt" height="32pt" viewBox="0 0 32 32" version="1.1">
<g id="surface2323127">
<path style=" stroke:none;fill-rule:nonzero;fill:rgb(100%,100%,100%);fill-opacity:1;" d="M 20.609375 4.015625 C 20.28125 3.984375 19.953125 4.015625 19.640625 4.109375 C 19.007812 4.289062 18.445312 4.695312 18.078125 5.28125 L 14.664062 10.71875 L 13.90625 9.078125 L 13.890625 9.085938 C 13.710938 8.523438 13.328125 8.046875 12.78125 7.773438 L 5.796875 4.28125 C 4.085938 3.421875 2 4.710938 2 6.625 L 2 21.765625 C 2 22.898438 2.648438 23.9375 3.65625 24.445312 L 10.203125 27.71875 C 11.914062 28.570312 14 27.289062 14 25.375 L 14 21.617188 L 26.210938 27.71875 C 27.914062 28.570312 30 27.28125 30 25.375 L 30 9.890625 C 30 8.96875 29.476562 8.117188 28.65625 7.703125 L 28.648438 7.703125 L 21.578125 4.273438 C 21.265625 4.125 20.9375 4.039062 20.609375 4.015625 Z M 4.570312 5.984375 C 4.671875 5.984375 4.789062 6.007812 4.898438 6.0625 L 11.890625 9.5625 C 11.960938 9.601562 12 9.664062 12 9.742188 L 12 25.375 C 12 25.882812 11.554688 26.15625 11.109375 25.9375 L 4.546875 22.65625 C 4.210938 22.484375 4 22.148438 4 21.765625 L 4 6.625 C 4 6.242188 4.257812 5.992188 4.570312 5.984375 Z M 20.1875 6.03125 C 20.351562 5.976562 20.53125 5.992188 20.703125 6.078125 L 27.757812 9.5 C 27.867188 9.554688 27.929688 9.648438 27.96875 9.765625 L 20.070312 22.398438 L 15.671875 12.882812 L 19.78125 6.34375 C 19.875 6.179688 20.023438 6.078125 20.1875 6.03125 Z M 28 13.484375 L 28 25.375 C 28 25.882812 27.554688 26.15625 27.101562 25.9375 L 21.859375 23.3125 Z M 14 14.039062 L 17.21875 20.992188 L 14 19.382812 Z M 14 14.039062 "/>
</g>
</svg>
